<svg id="visual" viewBox="0 0 960 540" width="960" height="540" xmlns="http://www.w3.org/2000/svg" xmlns:xlink="http://www.w3.org/1999/xlink" version="1.1"><path d="M260 0L281.5 12.8C303 25.7 346 51.3 365.7 77C385.3 102.7 381.7 128.3 359.3 154C337 179.7 296 205.3 299 231.2C302 257 349 283 350.7 308.8C352.3 334.7 308.7 360.3 305.3 386C302 411.7 339 437.3 351.2 463C363.3 488.7 350.7 514.3 344.3 527.2L338 540L0 540L0 527.2C0 514.3 0 488.7 0 463C0 437.3 0 411.7 0 386C0 360.3 0 334.7 0 308.8C0 283 0 257 0 231.2C0 205.3 0 179.7 0 154C0 128.3 0 102.7 0 77C0 51.3 0 25.7 0 12.8L0 0Z" fill="#ff1100"></path><path d="M194 0L206.8 12.8C219.7 25.7 245.3 51.3 263.2 77C281 102.7 291 128.3 289.2 154C287.3 179.7 273.7 205.3 276.7 231.2C279.7 257 299.3 283 304.5 308.8C309.7 334.7 300.3 360.3 290.3 386C280.3 411.7 269.7 437.3 258.8 463C248 488.7 237 514.3 231.5 527.2L226 540L0 540L0 527.2C0 514.3 0 488.7 0 463C0 437.3 0 411.7 0 386C0 360.3 0 334.7 0 308.8C0 283 0 257 0 231.2C0 205.3 0 179.7 0 154C0 128.3 0 102.7 0 77C0 51.3 0 25.7 0 12.8L0 0Z" fill="#db002d"></path><path d="M145 0L162.3 12.8C179.7 25.7 214.3 51.3 225.2 77C236 102.7 223 128.3 207.2 154C191.3 179.7 172.7 205.3 176 231.2C179.3 257 204.7 283 208.8 308.8C213 334.7 196 360.3 198 386C200 411.7 221 437.3 229.2 463C237.3 488.7 232.7 514.3 230.3 527.2L228 540L0 540L0 527.2C0 514.3 0 488.7 0 463C0 437.3 0 411.7 0 386C0 360.3 0 334.7 0 308.8C0 283 0 257 0 231.2C0 205.3 0 179.7 0 154C0 128.3 0 102.7 0 77C0 51.3 0 25.7 0 12.8L0 0Z" fill="#af0f3d"></path><path d="M120 0L126.8 12.8C133.7 25.7 147.3 51.3 153.8 77C160.3 102.7 159.7 128.3 158.8 154C158 179.7 157 205.3 162.3 231.2C167.7 257 179.3 283 173.5 308.8C167.7 334.7 144.3 360.3 130.5 386C116.7 411.7 112.3 437.3 107.8 463C103.3 488.7 98.7 514.3 96.3 527.2L94 540L0 540L0 527.2C0 514.3 0 488.7 0 463C0 437.3 0 411.7 0 386C0 360.3 0 334.7 0 308.8C0 283 0 257 0 231.2C0 205.3 0 179.7 0 154C0 128.3 0 102.7 0 77C0 51.3 0 25.7 0 12.8L0 0Z" fill="#802040"></path><path d="M90 0L88.7 12.8C87.3 25.7 84.7 51.3 81.8 77C79 102.7 76 128.3 76.5 154C77 179.7 81 205.3 75.8 231.2C70.7 257 56.3 283 52.2 308.8C48 334.7 54 360.3 58.3 386C62.7 411.7 65.3 437.3 74.8 463C84.3 488.7 100.7 514.3 108.8 527.2L117 540L0 540L0 527.2C0 514.3 0 488.7 0 463C0 437.3 0 411.7 0 386C0 360.3 0 334.7 0 308.8C0 283 0 257 0 231.2C0 205.3 0 179.7 0 154C0 128.3 0 102.7 0 77C0 51.3 0 25.7 0 12.8L0 0Z" fill="#512537"></path></svg>